<?xml version="1.0" encoding="UTF-8"?>
<svg xmlns="http://www.w3.org/2000/svg" version="1.1" viewBox="0 0 240.5 94.5">
  <defs>
    <style>
      .cls-1 {
        font-family: IBMPlexSans-Bold, 'IBM Plex Sans';
        font-size: 18.5px;
        font-weight: 700;
        isolation: isolate;
      }

      .cls-1, .cls-2 {
        fill: #fff;
      }
    </style>
  </defs>
  <!-- Generator: Adobe Illustrator 28.7.10, SVG Export Plug-In . SVG Version: 1.2.0 Build 236)  -->
  <g>
    <g id="Layer_1">
      <g>
        <path class="cls-2" d="M11,41.1H0L21.3,0h14l21.4,41.1h-11l-4.4-8.5H15.4l-4.4,8.5ZM19.7,24.1h17.1l-7.5-14.5h-2.1s-7.5,14.5-7.5,14.5Z"/>
        <path class="cls-2" d="M81.4,9.7v21.6h16v9.8h-35.2l-5.2-9.8h14.6V9.7h-25.9L40.4,0h57v9.7h-16Z"/>
        <path class="cls-2" d="M143.5,41.1c-.4,0-.7,0-1.1-.2-.3-.1-.6-.3-.9-.6-.3-.3-.5-.6-.6-.9s-.2-.7-.2-1.1V2.8c0-.7.3-1.4.8-2,.5-.5,1.2-.8,2-.8h41.3c.4,0,.7,0,1.1.2.3.1.6.3.9.6.2.3.5.6.6.9.1.3.2.7.2,1.1v11.9h-9.8v-5h-27.2v21.6h27.2v-4.9h9.8v11.8c0,.7-.3,1.4-.8,1.9-.5.5-1.2.8-1.9.8,0,0-41.3,0-41.3,0Z"/>
        <path class="cls-2" d="M195.4,41.1c-.4,0-.7,0-1.1-.2-.3-.1-.6-.3-.9-.6-.3-.3-.5-.6-.6-.9-.1-.3-.2-.7-.2-1.1V2.8c0-.4,0-.7.2-1.1.1-.3.3-.6.6-.9.3-.3.6-.5.9-.6.3-.1.7-.2,1-.2h41.3c.7,0,1.4.3,2,.8.5.5.8,1.2.8,2v11.9h-9.7v-5h-27.3v21.6h27.3v-4.9h9.8v11.8c0,.7-.3,1.4-.8,1.9-.5.5-1.2.8-1.9.8h-41.4s0,0,0,0Z"/>
        <path class="cls-2" d="M136.3,31.3h-3.1c-.9,0-1.8-.4-2.5-1l-4.7-4.7,4.7-4.7c.3-.3.7-.6,1.1-.8.4-.2.9-.3,1.4-.3h3.1v-9.9h-5.5c-2,0-3.9.8-5.4,2.2l-6.4,6.4-6.4-6.4c-1.4-1.4-3.4-2.2-5.4-2.2h-5.4v9.8h3.1c.5,0,.9,0,1.3.3.4.2.8.4,1.1.8l4.7,4.7-4.7,4.7c-.7.7-1.6,1-2.5,1h-3.1v9.8h5.4c1,0,2-.2,2.9-.6.9-.4,1.8-.9,2.5-1.6l6.4-6.4,6.4,6.4c.7.7,1.5,1.3,2.5,1.7.9.4,1.9.6,2.9.6h5.5v-9.7h0Z"/>
        <text class="cls-1" transform="translate(113 59.2)"><tspan x="0" y="0">A</tspan></text>
        <text class="cls-1" transform="translate(125.7 59.2)"><tspan x="0" y="0">R</tspan></text>
        <text class="cls-1" transform="translate(138 59.2)"><tspan x="0" y="0">CHIVE S</tspan></text>
        <text class="cls-1" transform="translate(210.5 59.2)"><tspan x="0" y="0">I</tspan></text>
        <text class="cls-1" transform="translate(218.4 59.2)"><tspan x="0" y="0">TE</tspan></text>
      </g>
    </g>
  </g>
</svg>